<svg width="160" height="160" viewBox="0 0 160 160" fill="none" xmlns="http://www.w3.org/2000/svg">
<circle cx="80" cy="80" r="65" fill="#292929"/>
<path fill-rule="evenodd" clip-rule="evenodd" d="M44.7542 59.8511L44.7547 102.69L58.485 108.319C58.6109 108.354 58.7335 108.404 58.85 108.469L78.3571 116.467L78.3572 74.6493L44.7542 59.8511Z" fill="#0B0B0B"/>
<path fill-rule="evenodd" clip-rule="evenodd" d="M80.0017 42.8804L47.1924 57.331L80.0017 71.7787L112.811 57.331L112.034 56.9889C111.942 56.9578 111.851 56.9181 111.764 56.8698L101.049 52.1503C100.896 52.1083 100.749 52.0442 100.612 51.9581L80.0017 42.8804Z" fill="#0B0B0B"/>
<path fill-rule="evenodd" clip-rule="evenodd" d="M81.6458 74.6493L81.6458 116.467L115.246 102.69V59.8516L81.6458 74.6493Z" fill="#0B0B0B"/>
<path fill-rule="evenodd" clip-rule="evenodd" d="M118.85 35.5252L104.359 50.0158L112.192 53.4653L124.518 41.1074C124.617 41.0091 124.724 40.926 124.838 40.8578L124.84 40.8565L124.859 40.8454C125.233 40.6286 125.668 40.5736 126.071 40.6714L126.073 40.6719L126.109 40.6812L126.111 40.6817L126.147 40.6919L126.15 40.6925L126.185 40.7035L126.188 40.7042L126.223 40.716C126.45 40.7946 126.663 40.9239 126.845 41.1045C126.895 41.1552 126.942 41.2083 126.985 41.2636C136.568 52.8702 141.474 67.5861 140.801 82.7092C140.122 97.9449 133.816 112.267 123.042 123.041C112.269 133.814 97.9433 140.123 82.7077 140.8C81.7942 140.84 80.8751 140.863 79.9643 140.863C65.8276 140.863 52.1934 135.996 41.2944 127.007C41.2287 126.959 41.1656 126.905 41.1059 126.846C40.4641 126.204 40.4636 125.162 41.1059 124.519L55.1295 110.496L47.1503 107.224L35.5189 118.854C35.4714 118.904 35.4201 118.953 35.3651 118.998C35.1694 119.161 34.9468 119.27 34.7146 119.327L34.7099 119.328L34.6324 119.345L34.6292 119.346L34.5949 119.352L34.5934 119.352L34.5605 119.358L34.5544 119.358L34.5347 119.361L34.526 119.362L34.5151 119.364L34.4954 119.366L34.4914 119.366L34.4758 119.368L34.474 119.368L34.4561 119.369L34.4394 119.371L34.4364 119.371L34.4221 119.372L34.4166 119.372L34.4046 119.373L34.3969 119.373L34.3873 119.374L34.3771 119.374L34.3699 119.374L34.3574 119.375L34.3526 119.375L34.3375 119.375H34.3351L34.3178 119.375L34.2981 119.375L34.2957 119.375L34.2785 119.375L34.2737 119.375L34.2588 119.374L34.2516 119.374L34.2392 119.373L34.2296 119.373L34.2195 119.372L34.2075 119.372L34.1999 119.371L34.1855 119.37L34.1409 119.366L34.1213 119.364L34.1195 119.363L34.1018 119.361L34.0976 119.36L34.0822 119.358L34.0758 119.357C33.9156 119.334 33.7581 119.286 33.609 119.215L33.6074 119.214L33.5888 119.205L33.5711 119.196L33.5687 119.195L33.5532 119.187L33.5487 119.185L33.5353 119.178C33.3545 119.08 33.1888 118.947 33.0499 118.779C23.4441 107.166 18.5251 92.4267 19.2017 77.2795C19.8786 62.0382 26.1872 47.716 36.9609 36.9595C47.7376 26.1971 62.0623 19.894 77.2924 19.2117C92.415 18.5302 107.132 23.4358 118.736 33.0152C118.791 33.0576 118.844 33.1039 118.894 33.1542C119.206 33.4665 119.367 33.873 119.375 34.2822L119.376 34.3175V34.3217L119.375 34.357L119.375 34.3611L119.374 34.3964C119.358 34.7397 119.235 35.0812 119 35.3666C118.953 35.4235 118.903 35.4763 118.85 35.5252ZM80.0016 11.4839C42.2195 11.4839 11.4824 42.2207 11.4824 80.0001C11.483 117.78 42.2193 148.516 80.0015 148.516C117.781 148.516 148.518 117.78 148.518 80.0001C148.518 42.2207 117.781 11.484 80.0016 11.4839Z" fill="#0B0B0B"/>
<path fill-rule="evenodd" clip-rule="evenodd" d="M115.269 34.4532C92.3549 16.6556 59.9995 18.5991 39.2844 39.2863C18.9164 59.6235 16.9419 92.6509 34.4564 115.268L43.8507 105.872L42.4879 105.313C41.8712 105.062 41.4683 104.459 41.4683 103.791L41.4685 57.3512L41.4683 57.3309C41.4683 57.2603 41.4729 57.1904 41.4817 57.1215L41.4819 57.1199L41.4872 57.0819L41.488 57.0772L41.4922 57.0511L41.4957 57.0312L41.5015 57.0019C41.5252 56.8847 41.5613 56.7721 41.6089 56.6646L41.619 56.6422L41.6226 56.6344L41.6335 56.6115L41.6465 56.5853L41.6479 56.5825L41.66 56.5593L41.6664 56.5472L41.6682 56.5441C41.8166 56.2708 42.0419 56.0411 42.3232 55.8876L42.3278 55.8851L42.3381 55.8795L42.363 55.8665L42.365 55.8655L42.3931 55.8516L42.4199 55.8389L42.4474 55.8265L42.4717 55.8158L79.3392 39.5802C79.7587 39.3946 80.2411 39.3947 80.6637 39.5802L101.129 48.5931L115.269 34.4532Z" fill="#0B0B0B"/>
<path fill-rule="evenodd" clip-rule="evenodd" d="M118.534 57.3313V103.792C118.534 104.46 118.132 105.062 117.512 105.313L80.6691 120.419C80.6264 120.438 80.5831 120.455 80.539 120.47L80.5336 120.472L80.5295 120.473L80.5192 120.477L80.5104 120.48C80.3895 120.519 80.2652 120.544 80.1401 120.555L80.1364 120.555L80.1104 120.557L80.1065 120.557L80.0907 120.558L80.0766 120.559L80.0709 120.559L80.061 120.559L80.0511 120.56L80.0466 120.56L80.0412 120.56L80.0313 120.56L80.0215 120.56H80.0166L80.0115 120.56H80.0016H79.9918L79.9865 120.56H79.9818L79.9714 120.56L79.962 120.56L79.9563 120.56L79.9521 120.56L79.9422 120.559L79.9412 120.559L79.9322 120.559L79.9262 120.559L79.9224 120.559L79.9125 120.558L79.911 120.558L79.9026 120.558L79.896 120.557L79.8927 120.557L79.8828 120.556L79.8809 120.556L79.8729 120.556L79.8658 120.555L79.863 120.555L79.8532 120.554L79.8508 120.554L79.8433 120.553L79.8358 120.552L79.8333 120.552L79.8235 120.551L79.8208 120.551L79.8058 120.549L79.8038 120.549L79.7939 120.547L79.7908 120.547L79.7841 120.546L79.7643 120.543L79.7609 120.543L79.7459 120.541L79.7447 120.54L79.7348 120.539L79.7311 120.538L79.725 120.537L79.7053 120.534L79.7014 120.533L79.6956 120.532L79.6857 120.53L79.6759 120.528L79.6718 120.527L79.6661 120.526L79.6563 120.524L79.6466 120.522L79.6421 120.521L79.6368 120.52L79.627 120.518L79.6172 120.515L79.6127 120.514L79.6075 120.513L79.5978 120.51L79.5881 120.508L79.5835 120.507L79.5783 120.505L79.5686 120.503L79.5589 120.5L79.5543 120.499L79.5492 120.497L79.5395 120.495L79.5298 120.492L79.5105 120.486L79.5008 120.483L79.4963 120.482L79.4676 120.472L79.4623 120.47L79.424 120.456L79.4144 120.453L79.3523 120.428L58.4296 111.849L44.7307 125.549C55.1864 133.671 67.6059 137.686 79.9815 137.686C94.7491 137.689 109.457 131.977 120.716 120.717C141.417 100.017 143.36 67.665 125.547 44.7349L115.418 54.8865L117.512 55.8089C118.068 56.036 118.471 56.558 118.527 57.1799L118.53 57.2047L118.53 57.21L118.532 57.2402L118.532 57.2466L118.533 57.2553L118.534 57.2835L118.534 57.2924L118.534 57.3313Z" fill="#0B0B0B"/>
</svg>
